#!OML:ASF E:\Style4\Style4.ASF
:FULLY-SPECIFIED
:DEGREES
2229
root -1.07761 16.7253 -1.67182 4.22094 11.1094 0.973869
lowerback 18.5857 4.63756 0.337856
upperback 15.0774 6.2228 0.717998
thorax 5.98251 3.20035 -0.21378
lowerneck 7.04282 -8.93756 -5.09959
upperneck -6.09016 -11.6409 12.708
head -1.87338 -6.19176 4.97431
rclavicle 7.07673e-014 -1.43125e-014
rhumerus 57.4823 15.8475 -40.2756
rradius 81.9609
rwrist -68.9635
rhand 12.8939 4.55185
rfingers 7.12502
rthumb 37.8656 -21.2838
lclavicle 7.07673e-014 -1.43125e-014
lhumerus 38.164 -24.4123 75.3138
lradius 100.071
lwrist 50.7234
lhand -37.9309 41.651
lfingers 7.12502
lthumb -10.9726 71.3442
rfemur -34.5633 -13.7248 23.8708
rtibia 56.7493
rfoot -26.2728 -20.3548
rtoes -5.64895
lfemur -36.2265 -1.92995 -15.3562
ltibia 53.4178
lfoot -19.8577 4.26462
ltoes -20.3551
2230
root -1.06511 16.7365 -1.67306 4.28789 11.4735 1.0904
lowerback 18.7781 4.84823 1.07615
upperback 15.0826 6.5986 0.63683
thorax 5.99538 3.46122 -0.764401
lowerneck 7.05374 -9.46434 -4.45536
upperneck -6.28487 -12.2732 12.6086
head -1.92196 -6.52243 4.85853
rclavicle -1.11319e-014 -9.54166e-015
rhumerus 56.5602 15.4726 -41.6729
rradius 81.9609
rwrist -68.875
rhand 12.8177 4.64201
rfingers 7.12502
rthumb 37.7936 -21.2131
lclavicle -1.11319e-014 -9.54166e-015
lhumerus 38.6454 -24.9408 74.0763
lradius 99.8262
lwrist 50.6711
lhand -37.8446 41.1005
lfingers 7.12502
lthumb -10.8894 70.7982
rfemur -34.5236 -13.9768 23.702
rtibia 56.6454
rfoot -26.2265 -20.4422
rtoes -5.84333
lfemur -36.206 -2.15255 -15.541
ltibia 53.1305
lfoot -19.6589 4.25053
ltoes -20.8487
2231
root -1.05186 16.7524 -1.66939 4.36493 11.755 1.31491
lowerback 18.9011 5.07553 1.58247
upperback 15.1201 6.96724 0.578495
thorax 6.06191 3.69804 -1.15414
lowerneck 6.97883 -9.93957 -3.87374
upperneck -6.41537 -12.8513 12.4326
head -1.94798 -6.8182 4.72383
rclavicle -1.82882e-014 1.19271e-014
rhumerus 55.757 15.2028 -42.9133
rradius 82.1353
rwrist -68.7883
rhand 12.188 4.54069
rfingers 7.12502
rthumb 37.1985 -21.4722
lclavicle -1.82882e-014 1.19271e-014
lhumerus 39.0954 -25.3413 72.9962
lradius 99.7033
lwrist 50.7456
lhand -37.4249 41.1154
lfingers 7.12502
lthumb -10.4846 70.8339
rfemur -34.4319 -14.16 23.3936
rtibia 56.5053
rfoot -26.175 -20.4851
rtoes -6.07539
lfemur -36.1102 -2.27518 -15.8668
ltibia 52.7936
lfoot -19.3868 4.27643
ltoes -21.7305
2232
root -1.03638 16.7713 -1.66215 4.51431 11.9796 1.61619
lowerback 18.9176 5.28389 1.85342
upperback 15.1448 7.27928 0.533714
thorax 6.13968 3.88495 -1.38475
lowerneck 6.84949 -10.3392 -3.41157
upperneck -6.45409 -13.3477 12.2565
head -1.94077 -7.0668 4.60058
rclavicle -8.26944e-014 7.23576e-014
rhumerus 55.1338 15.129 -43.9933
rradius 82.3928
rwrist -69.0373
rhand 11.0412 4.72331
rfingers 7.12502
rthumb 36.1132 -21.5653
lclavicle -8.26944e-014 7.23576e-014
lhumerus 39.6978 -25.4553 71.5699
lradius 99.7498
lwrist 50.9492
lhand -36.9824 41.4919
lfingers 7.12502
lthumb -10.0577 71.2316
rfemur -34.3749 -14.3328 23.0093
rtibia 56.3333
rfoot -26.0472 -20.576
rtoes -6.36466
lfemur -36.0068 -2.36247 -16.2824
ltibia 52.4205
lfoot -19.2315 4.23384
ltoes -22.089
2233
root -1.01687 16.7905 -1.65524 4.60309 12.2219 1.74619
lowerback 18.9349 5.42632 2.26647
upperback 15.1772 7.5227 0.545235
thorax 6.2379 4.04618 -1.62239
lowerneck 6.6846 -10.6973 -2.99998
upperneck -6.46192 -13.7995 12.0429
head -1.92441 -7.28901 4.47097
rclavicle -1.04958e-013 8.74653e-014
rhumerus 54.6028 15.1641 -45.0409
rradius 82.6313
rwrist -69.1853
rhand 9.93674 5.12872
rfingers 7.12502
rthumb 35.0663 -21.4118
lclavicle -1.04958e-013 8.74653e-014
lhumerus 40.4865 -25.3273 69.737
lradius 99.7473
lwrist 51.1366
lhand -36.6552 41.6486
lfingers 7.12502
lthumb -9.74197 71.4033
rfemur -34.2407 -14.5028 22.7889
rtibia 56.1134
rfoot -25.9843 -20.5996
rtoes -6.34857
lfemur -35.8584 -2.52324 -16.5059
ltibia 52.0429
lfoot -19.0992 4.14579
ltoes -21.7375
2234
root -0.996883 16.8113 -1.64976 4.63763 12.4825 1.8252
lowerback 18.9944 5.54389 2.71427
upperback 15.2256 7.73802 0.604306
thorax 6.33366 4.19411 -1.82705
lowerneck 6.55888 -11.0428 -2.70865
upperneck -6.28462 -14.2839 11.4888
head -2.07603 -7.49334 4.73029
rclavicle -6.83819e-014 2.70347e-014
rhumerus 54.1027 15.1768 -46.1186
rradius 82.8139
rwrist -68.933
rhand 9.30509 5.53795
rfingers 7.12502
rthumb 34.4669 -21.1409
lclavicle -6.83819e-014 2.70347e-014
lhumerus 41.1616 -25.2466 68.1323
lradius 99.5986
lwrist 51.1659
lhand -36.4576 41.4242
lfingers 7.12502
lthumb -9.55137 71.1877
rfemur -34.0446 -14.711 22.615
rtibia 55.8692
rfoot -25.8816 -20.6514
rtoes -6.60397
lfemur -35.6644 -2.69113 -16.6711
ltibia 51.6534
lfoot -18.9257 4.0345
ltoes -21.3376
2235
root -0.97885 16.8301 -1.64566 4.74768 12.7136 1.96665
lowerback 19.0041 5.66929 3.00487
upperback 15.2531 7.941 0.677372
thorax 6.40675 4.32044 -1.92678
lowerneck 6.47824 -11.3642 -2.42399
upperneck -6.37262 -14.6971 11.2364
head -2.09792 -7.69723 4.59585
rclavicle 3.26007e-014 -5.725e-014
rhumerus 53.6963 15.212 -47.1275
rradius 82.9554
rwrist -68.6379
rhand 8.64404 5.97356
rfingers 7.12502
rthumb 33.8391 -20.8458
lclavicle 3.26007e-014 -5.725e-014
lhumerus 41.649 -25.1406 66.7922
lradius 99.4854
lwrist 51.1038
lhand -36.1194 41.3158
lfingers 7.12502
lthumb -9.22504 71.094
rfemur -33.9384 -14.8511 22.3942
rtibia 55.6365
rfoot -25.8461 -20.6703
rtoes -6.62425
lfemur -35.5344 -2.7996 -16.897
ltibia 51.2456
lfoot -18.7809 3.90819
ltoes -20.8439
2236
root -0.960398 16.8486 -1.64195 4.85869 12.9381 2.13353
lowerback 19.0091 5.77001 3.21224
upperback 15.2763 8.10053 0.753904
thorax 6.46221 4.41706 -1.97273
lowerneck 6.38848 -11.633 -2.15937
upperneck -6.41927 -15.0467 10.9565
head -2.11227 -7.86658 4.45389
rclavicle 2.70347e-014 -3.02153e-014
rhumerus 53.3842 15.3626 -48.0777
rradius 83.1579
rwrist -68.6203
rhand 7.67977 6.55682
rfingers 7.12502
rthumb 32.9225 -20.4597
lclavicle 2.70347e-014 -3.02153e-014
lhumerus 42.0435 -24.8997 65.561
lradius 99.3576
lwrist 50.9019
lhand -35.5479 41.336
lfingers 7.12502
lthumb -8.67353 71.1379
rfemur -33.8278 -15.003 22.1423
rtibia 55.4109
rfoot -25.8223 -20.665
rtoes -6.42967
lfemur -35.3993 -2.91593 -17.1535
ltibia 50.8291
lfoot -18.6293 3.83309
ltoes -20.7567
2237
root -0.939914 16.8681 -1.63984 4.9841 13.1751 2.32617
lowerback 19.0365 5.85596 3.41469
upperback 15.2713 8.24032 0.83611
thorax 6.47098 4.50183 -2.01264
lowerneck 6.31485 -11.8922 -2.01493
upperneck -6.38279 -15.3971 10.7194
head -2.09059 -8.03349 4.3431
rclavicle 7.4743e-014 -1.59028e-015
rhumerus 53.0481 15.5374 -48.9374
rradius 83.4476
rwrist -68.8854
rhand 6.4103 7.08529
rfingers 7.12502
rthumb 31.7142 -20.1776
lclavicle 7.4743e-014 -1.59028e-015
lhumerus 42.4027 -24.6501 64.4542
lradius 99.1942
lwrist 50.619
lhand -34.9692 41.4824
lfingers 7.12502
lthumb -8.11507 71.3066
rfemur -33.7451 -15.1901 21.8573
rtibia 55.2002
rfoot -25.7579 -20.6743
rtoes -6.36842
lfemur -35.2605 -3.1127 -17.4314
ltibia 50.4009
lfoot -18.5074 3.85334
ltoes -21.0962
2238
root -0.920126 16.8863 -1.63709 5.04417 13.4338 2.47073
lowerback 19.0781 5.91458 3.63784
upperback 15.295 8.3474 0.949602
thorax 6.50239 4.57099 -2.02577
lowerneck 6.2566 -12.1166 -1.92645
upperneck -6.3653 -15.7036 10.5082
head -2.07611 -8.179 4.25317
rclavicle -1.01778e-013 3.49861e-014
rhumerus 52.7015 15.7019 -49.8628
rradius 83.7435
rwrist -68.8714
rhand 5.21197 7.47497
rfingers 7.12502
rthumb 30.5721 -20.0072
lclavicle -1.01778e-013 3.49861e-014
lhumerus 42.7959 -24.3711 63.2951
lradius 99.1143
lwrist 50.5481
lhand -34.6585 41.6834
lfingers 7.12502
lthumb -7.81519 71.5189
rfemur -33.5867 -15.3441 21.6109
rtibia 54.9704
rfoot -25.6686 -20.7575
rtoes -6.60141
lfemur -35.0696 -3.28447 -17.6615
ltibia 49.9775
lfoot -18.3266 3.80391
ltoes -21.1392
